<svg xmlns="http://www.w3.org/2000/svg" width="28" height="28" fill="currentColor" class="bi bi-person-circle" viewBox="0 0 16 16">
  <path d="M11 6a3 3 0 1 1-6 0 3 3 0 0 1 6 0zM8 7a2 2 0 1 0 0-4 2 2 0 0 0 0 4zm.256 7a4.474 4.474 0 0 1-.759-1.025c.02-.02.045-.035.07-.052a3.36 3.36 0 0 0 .967.52c.393.379.744.682.868.1.023.039.036.089.036.151.0.504-.784 2.189-4.447 2.189.558.106 1.114.17 1.67.07m4.038-1.901.047.02c.837-.572 2.228-2.619 2.228-5.537 0-2.6-2.255-4.681-5.088-4.681-.859 0-1.676.181-2.433.52-.456-.306-.998-.489-1.595-.489C2.926 1.133 1 3.060 1 5.422c0 3.065 3.193 5.12 4.822 5.12 2.51 0 5.361-2.737 5.952-5.62z"/>
</svg>
