<svg xmlns="http://www.w3.org/2000/svg" width="64" height="64" fill="#007bff" class="bi bi-shield-check" viewBox="0 0 16 16">
  <path d="M5.338 1.59a61.44 61.44 0 0 0-2.837.856.481.481 0 0 0-.328.39c-.554 4.157.726 7.030 2.818 9.678.822.971 1.844 2.113 2.798 2.983a.5.5 0 0 0 .872-.5c-.968-1.068-2.009-2.187-2.822-3.176C4.615 13.471 4 12.5 4 11.5v-1a.5.5 0 0 0-.5-.5h-1a.5.5 0 0 0-.494.574c.162 1.03-.26 1.944-.963 2.823-.704.874-1.325 2.023-1.679 2.992-.133.26-.294.432-.38.537a.5.5 0 0 0 .42.865c.218-.113.438-.303.657-.567.327-.392.582-.956.781-1.694a6.975 6.975 0 0 0 .06-1.78V5.5a.5.5 0 0 0-.5-.5H4v-.5a3 3 0 0 1 1.659-2.676 1.884 1.884 0 0 0 1.210-2.423 1.9 1.9 0 0 0-1.531-1.412zM11 7a1 1 0 1 1-2 0 1 1 0 0 1 2 0z"/>
</svg>
